<svg width="16" height="16" viewBox="0 0 16 16" fill="none" xmlns="http://www.w3.org/2000/svg">
<g clip-path="url(#clip0_62_1041)">
<path d="M11.96 11.9603C10.8204 12.829 9.43276 13.3103 8.00002 13.3337C3.33335 13.3337 0.666687 8.00034 0.666687 8.00034C1.49595 6.45494 2.64611 5.10475 4.04002 4.04034M6.60002 2.82701C7.05891 2.7196 7.52873 2.6659 8.00002 2.66701C12.6667 2.66701 15.3334 8.00034 15.3334 8.00034C14.9287 8.75741 14.4461 9.47017 13.8934 10.127M9.41335 9.41368C9.23026 9.61017 9.00945 9.76778 8.76412 9.87709C8.51879 9.9864 8.25396 10.0452 7.98541 10.0499C7.71687 10.0547 7.45013 10.0053 7.20109 9.90467C6.95206 9.80408 6.72583 9.65436 6.53592 9.46444C6.346 9.27453 6.19628 9.0483 6.09569 8.79927C5.9951 8.55023 5.9457 8.28349 5.95044 8.01495C5.95518 7.74641 6.01396 7.48157 6.12327 7.23624C6.23258 6.99091 6.39019 6.77011 6.58669 6.58701" stroke="#494A4E" stroke-width="2" stroke-linecap="round" stroke-linejoin="round"/>
<path d="M0.666687 0.666992L15.3334 15.3337" stroke="#494A4E" stroke-width="2" stroke-linecap="round" stroke-linejoin="round"/>
</g>
<defs>
<clipPath id="clip0_62_1041">
<rect width="16" height="16" fill="white"/>
</clipPath>
</defs>
</svg>
